<?xml version="1.0" encoding="UTF-8"?>
<svg width="512" height="512" viewBox="0 0 512 512" fill="none" xmlns="http://www.w3.org/2000/svg">
  <!-- Background Circle -->
  <circle cx="256" cy="256" r="240" fill="url(#gradient)" />
  
  <!-- Cloud Storage Icon -->
  <path d="M340 232c-5.52 0-10 4.48-10 10s4.48 10 10 10c22.1 0 40 17.9 40 40s-17.9 40-40 40h-240c-22.1 0-40-17.9-40-40s17.9-40 40-40c2.71 0 5.41.3 8 .85 2.59.56 5.31 0 7.34-1.8 2.03-1.79 3.07-4.43 2.82-7.08-1.85-19.8 5.02-38.2 19.5-52.7 14.5-14.5 33.1-21.4 53.1-19.5 23.7 2.18 44.1 17.5 53 40 1.35 3.39 4.51 5.68 8.16 5.85 1.4.07 2.79.15 4.19.15 46.4 0 84-37.6 84-84 0-46.4-37.6-84-84-84-25.2 0-48.8 11.1-64.9 30.4-2.5 3-6.92 3.63-10.2 1.43-9.92-6.53-21.6-10.3-33.8-10.3-35.3 0-64 28.7-64 64 0 10.6 2.6 20.7 7.6 29.7 1.83 3.26 1.19 7.37-1.53 9.94-8.85 8.4-14.4 19.8-16.3 32" 
        fill="white" stroke="white" stroke-width="16" stroke-linecap="round" stroke-linejoin="round" />
  
  <!-- Arrow Icons, Representing Upload/Download -->
  <path d="M272 168l-48-48-48 48M224 120v160M176 344l48 48 48-48" stroke="white" stroke-width="16" stroke-linecap="round" stroke-linejoin="round" />
  
  <!-- Gradient Definition -->
  <defs>
    <linearGradient id="gradient" x1="56" y1="56" x2="456" y2="456" gradientUnits="userSpaceOnUse">
      <stop offset="0" stop-color="#0066cc" />
      <stop offset="1" stop-color="#5E17EB" />
    </linearGradient>
  </defs>
</svg> 